<svg xmlns="http://www.w3.org/2000/svg" width="24" height="24" fill="none" viewBox="0 0 24 24"><path fill="#3492f7" d="m11.79 14.21-3.27 3.27q-.54-.48-1.05-.99a28.4 28.4 0 0 1-2.79-3.27c-.82-1.14-1.48-2.28-1.96-3.41Q2 8.1 2 6.54c0-.68.12-1.33.36-1.93.24-.61.62-1.17 1.15-1.67C4.15 2.31 4.85 2 5.59 2c.28 0 .56.06.81.18.26.12.49.3.67.56l2.32 3.27c.18.25.31.48.4.7.09.21.14.42.14.61 0 .24-.07.48-.21.71-.13.23-.32.47-.56.71l-.76.79c-.11.11-.16.24-.16.4 0 .08.01.15.03.23.03.08.06.14.08.2.18.33.49.76.93 1.28.45.52.93 1.05 1.45 1.58.36.35.71.69 1.06.99" opacity=".4"/><path fill="#3492f7" d="M21.97 18.33c0 .28-.05.57-.15.85-.03.08-.06.16-.1.24-.17.36-.39.7-.68 1.02-.49.54-1.03.93-1.64 1.18-.01 0-.02.01-.03.01-.59.24-1.23.37-1.92.37-1.02 0-2.11-.24-3.26-.73s-2.3-1.15-3.44-1.98c-.39-.29-.78-.58-1.15-.89l3.27-3.27c.28.21.53.37.74.48.05.02.11.05.18.08.08.03.16.04.25.04.17 0 .3-.06.41-.17l.76-.75c.25-.25.49-.44.72-.56.23-.14.46-.21.71-.21.19 0 .39.04.61.13s.45.22.7.39l3.31 2.35c.26.18.44.39.55.64.1.25.16.5.16.78m1.363-12.22q.001.182-.083.364-.083.18-.227.34-.243.27-.546.393-.302.126-.654.127-.51.001-1.086-.244a6 6 0 0 1-1.15-.66 9 9 0 0 1-.567-.45l1.087-1.086q.003 0 .006.003.26.219.43.307.026.01.06.026a.2.2 0 0 0 .084.014q.083 0 .136-.057l.254-.25q.124-.126.24-.187a.44.44 0 0 1 .236-.07q.094 0 .204.044.109.045.233.13l1.107.783q.128.09.183.213a.7.7 0 0 1 .053.26m-3.746-1.697L18.5 5.5q-.003 0-.007-.003a10 10 0 0 1-.933-1.09 6 6 0 0 1-.647-1.12l-.006-.017q-.24-.57-.24-1.09 0-.342.12-.644.098-.257.303-.473a1 1 0 0 1 .08-.083q.08-.08.163-.137h.004a.9.9 0 0 1 .53-.176.6.6 0 0 1 .27.06q.121.053.206.166.009.01.017.02l.773 1.09q.09.124.134.233.046.107.046.204 0 .121-.07.236a1.1 1.1 0 0 1-.186.237l-.254.264a.18.18 0 0 0-.053.133q0 .038.01.076l.027.067q.09.166.31.427a11 11 0 0 0 .49.533"/><path fill="#3492f7" d="M23.257.743c-.1-.1-.264-.1-.364 0l-6.15 6.154c-.1.1-.1.263 0 .363a.253.253 0 0 0 .36-.003l6.154-6.154a.25.25 0 0 0 0-.36"/></svg>