<svg xmlns="http://www.w3.org/2000/svg" width="24" height="24" fill="none" viewBox="0 0 24 24"><path fill="#3492f7" d="M16.19 2H7.81C4.17 2 2 4.17 2 7.81v8.37C2 19.83 4.17 22 7.81 22h8.37c3.64 0 5.81-2.17 5.81-5.81V7.81C22 4.17 19.83 2 16.19 2" opacity=".4"/><path fill="#3492f7" d="M16.773 15.712 13.061 12l3.712-3.712a.754.754 0 0 0 0-1.06.756.756 0 0 0-1.06 0L12 10.938 8.288 7.227a.755.755 0 0 0-1.061 0c-.29.29-.29.77 0 1.06L10.939 12l-3.712 3.712c-.29.29-.29.771 0 1.061s.77.29 1.06 0L12 13.061l3.712 3.712c.29.29.771.29 1.061 0s.29-.77 0-1.06"/></svg>