<svg xmlns="http://www.w3.org/2000/svg" width="24" height="24" fill="none" viewBox="0 0 24 24"><path fill="#3492f7" d="M19.6 12.605h1.966v-1.402a3.67 3.67 0 0 0-3.66-3.66H6.734a3.67 3.67 0 0 0-3.66 3.66v4.254A3.892 3.892 0 0 1 9.4 18.494c0 .73-.205 1.42-.565 2.005a3.5 3.5 0 0 1-.769.915h9.84a3.67 3.67 0 0 0 3.66-3.66v-1.158h-1.849c-1.051 0-2.015-.77-2.102-1.82a1.96 1.96 0 0 1 .584-1.587 1.94 1.94 0 0 1 1.401-.584" opacity=".4"/><path fill="#3492f7" d="M15.094 3.845v3.698H6.733a3.67 3.67 0 0 0-3.66 3.66V7.631c0-1.158.71-2.19 1.79-2.599l7.73-2.92c1.206-.448 2.5.438 2.5 1.733m7.506 9.753v2.005a1 1 0 0 1-.974.993h-1.907c-1.052 0-2.015-.77-2.103-1.82a1.96 1.96 0 0 1 .584-1.587 1.94 1.94 0 0 1 1.402-.584h2.024a1 1 0 0 1 .974.993m-8.333-1.188H7.453c-.4 0-.73-.33-.73-.73s.33-.73.73-.73h6.813c.4 0 .73.331.73.73 0 .4-.33.73-.73.73M8.26 15.74a3.9 3.9 0 0 0-2.327-1.114 3.87 3.87 0 0 0-3.18 1.115 3.8 3.8 0 0 0-1.019 1.817 3.86 3.86 0 0 0 1.019 3.689 3.8 3.8 0 0 0 2.498 1.122c.393.034.799 0 1.191-.103a3.8 3.8 0 0 0 1.817-1.02 3.89 3.89 0 0 0 0-5.505m-3.47 1.295c0-.4.33-.73.73-.73.406.007.73.33.736.737l-.007.722.696-.007c.406.007.73.33.736.737a.746.746 0 0 1-.736.736l-.696-.007.007.723a.746.746 0 0 1-.736.737.754.754 0 0 1-.73-.73v-.73h-.757a.72.72 0 0 1-.516-.213.72.72 0 0 1-.213-.516c0-.4.33-.73.73-.73h.756z"/></svg>