<svg xmlns="http://www.w3.org/2000/svg" width="24" height="24" fill="none" viewBox="0 0 24 24"><path fill="#3492f7" d="M21.69 2.71a.78.78 0 0 0-.41-.41.7.7 0 0 0-.29-.06h-4c-.41 0-.75.34-.75.75s.34.75.75.75h2.19l-4.72 4.72c-.29.29-.29.77 0 1.06.15.15.34.22.53.22s.38-.07.53-.22l4.72-4.72V7c0 .41.34.75.75.75s.75-.34.75-.75V3c.01-.1-.01-.19-.05-.29M8.47 14.47l-4.72 4.72V17c0-.41-.34-.75-.75-.75s-.75.34-.75.75v4c0 .1.02.19.06.29.08.18.22.33.41.41.09.04.19.06.29.06h4c.41 0 .75-.34.75-.75s-.34-.75-.75-.75H4.82l4.72-4.72c.29-.29.29-.77 0-1.06a.767.767 0 0 0-1.07-.01"/><path fill="#3492f7" d="M2.2 14.75c-.35 0-.66-.25-.73-.6-.14-.7-.22-1.43-.22-2.15C1.25 6.07 6.07 1.25 12 1.25c.73 0 1.46.07 2.17.22.41.08.67.48.59.88-.08.41-.49.66-.88.59-.61-.12-1.24-.19-1.87-.19-5.1 0-9.25 4.15-9.25 9.25 0 .62.06 1.25.19 1.85.08.41-.18.8-.59.88-.06.02-.11.02-.16.02m9.8 8c-.73 0-1.46-.07-2.17-.22a.75.75 0 0 1-.59-.88c.08-.41.49-.66.88-.59.61.12 1.24.19 1.87.19 5.1 0 9.25-4.15 9.25-9.25 0-.62-.06-1.24-.18-1.85-.08-.41.18-.8.59-.88s.8.18.88.59c.14.7.21 1.42.21 2.14.01 5.93-4.81 10.75-10.74 10.75" opacity=".4"/></svg>